<?xml version="1.0" encoding="utf-8"?>
<!-- Generator: Adobe Illustrator 25.2.3, SVG Export Plug-In . SVG Version: 6.00 Build 0)  -->
<svg version="1.1" xmlns="http://www.w3.org/2000/svg" xmlns:xlink="http://www.w3.org/1999/xlink" x="0px" y="0px"
	 viewBox="0 0 200 200" style="enable-background:new 0 0 200 200;" xml:space="preserve">
<style type="text/css">
	.st0{clip-path:url(#SVGID_2_);}
	.st1{clip-path:url(#SVGID_4_);fill:#F57D58;}
	.st2{clip-path:url(#SVGID_6_);}
	.st3{clip-path:url(#SVGID_8_);fill:#F57D58;}
	.st4{clip-path:url(#SVGID_10_);}
	.st5{clip-path:url(#SVGID_12_);fill:#F57D58;}
	.st6{clip-path:url(#SVGID_14_);}
	.st7{clip-path:url(#SVGID_16_);fill:#FFFFFF;}
</style>
<g id="Layer_2">
</g>
<g id="Layer_1">
</g>
<g id="Layer_3">
	<g>
		<g id="Artwork_2_1_">
			<g>
				<defs>
					<rect id="SVGID_1_" x="27" y="103" width="66.6" height="67"/>
				</defs>
				<clipPath id="SVGID_2_">
					<use xlink:href="#SVGID_1_"  style="overflow:visible;"/>
				</clipPath>
				<g class="st0">
					<defs>
						<rect id="SVGID_3_" x="27" y="103" width="66.6" height="67"/>
					</defs>
					<clipPath id="SVGID_4_">
						<use xlink:href="#SVGID_3_"  style="overflow:visible;"/>
					</clipPath>
					<path class="st1" d="M93.6,170H27v-67C34.7,136.1,60.7,162.2,93.6,170"/>
				</g>
			</g>
		</g>
		<g id="Artwork_2_2_">
			<g>
				<defs>
					<rect id="SVGID_5_" x="27" y="18" width="66.6" height="67"/>
				</defs>
				<clipPath id="SVGID_6_">
					<use xlink:href="#SVGID_5_"  style="overflow:visible;"/>
				</clipPath>
				<g class="st2">
					<defs>
						<rect id="SVGID_7_" x="27" y="18" width="66.6" height="67"/>
					</defs>
					<clipPath id="SVGID_8_">
						<use xlink:href="#SVGID_7_"  style="overflow:visible;"/>
					</clipPath>
					<path class="st3" d="M93.6,18H27v67C34.7,51.9,60.7,25.8,93.6,18"/>
				</g>
			</g>
		</g>
		<g id="Artwork_2_4_">
			<g>
				<defs>
					<rect id="SVGID_9_" x="113" y="103" width="66.6" height="67"/>
				</defs>
				<clipPath id="SVGID_10_">
					<use xlink:href="#SVGID_9_"  style="overflow:visible;"/>
				</clipPath>
				<g class="st4">
					<defs>
						<rect id="SVGID_11_" x="113" y="103" width="66.6" height="67"/>
					</defs>
					<clipPath id="SVGID_12_">
						<use xlink:href="#SVGID_11_"  style="overflow:visible;"/>
					</clipPath>
					<path class="st5" d="M113,170h66.6v-67C171.9,136.1,146,162.2,113,170"/>
				</g>
			</g>
		</g>
		<g id="Artwork_4_1_">
			<g>
				<defs>
					<rect id="SVGID_13_" x="111" y="18" width="68.4" height="68.4"/>
				</defs>
				<clipPath id="SVGID_14_">
					<use xlink:href="#SVGID_13_"  style="overflow:visible;"/>
				</clipPath>
				<g class="st6">
					<defs>
						<rect id="SVGID_15_" x="111" y="18" width="68.4" height="68.4"/>
					</defs>
					<clipPath id="SVGID_16_">
						<use xlink:href="#SVGID_15_"  style="overflow:visible;"/>
					</clipPath>
					<path class="st7" d="M111,18h68.4l0,68.4C171.4,52.5,144.8,25.9,111,18"/>
				</g>
			</g>
		</g>
	</g>
</g>
</svg>
